<svg width="112" height="35" viewBox="0 0 112 35" fill="none" xmlns="http://www.w3.org/2000/svg">
<rect x="0.158763" y="0.826388" width="16.5" height="16.5" rx="2.25" transform="matrix(0.918791 0.394744 -0.707107 0.707107 13.3252 5.17937)" stroke="#12B886" stroke-width="1.5"/>
<rect x="0.158763" y="0.826388" width="16.5" height="16.5" rx="2.25" transform="matrix(0.918791 0.394744 -0.707107 0.707107 13.3252 10.1794)" stroke="#0CA678" stroke-width="1.5"/>
<path d="M34.3572 22.976H39.5272V25H31.8492V9.71H34.3572V22.976ZM40.7886 18.884C40.7886 17.6667 41.0379 16.5887 41.5366 15.65C42.0499 14.7113 42.7393 13.9853 43.6046 13.472C44.4846 12.944 45.4526 12.68 46.5086 12.68C47.4619 12.68 48.2906 12.8707 48.9946 13.252C49.7133 13.6187 50.2853 14.0807 50.7106 14.638V12.878H53.2406V25H50.7106V23.196C50.2853 23.768 49.7059 24.2447 48.9726 24.626C48.2393 25.0073 47.4033 25.198 46.4646 25.198C45.4233 25.198 44.4699 24.934 43.6046 24.406C42.7393 23.8633 42.0499 23.1153 41.5366 22.162C41.0379 21.194 40.7886 20.1013 40.7886 18.884ZM50.7106 18.928C50.7106 18.092 50.5346 17.366 50.1826 16.75C49.8453 16.134 49.3979 15.6647 48.8406 15.342C48.2833 15.0193 47.6819 14.858 47.0366 14.858C46.3913 14.858 45.7899 15.0193 45.2326 15.342C44.6753 15.65 44.2206 16.112 43.8686 16.728C43.5313 17.3293 43.3626 18.048 43.3626 18.884C43.3626 19.72 43.5313 20.4533 43.8686 21.084C44.2206 21.7147 44.6753 22.1987 45.2326 22.536C45.8046 22.8587 46.4059 23.02 47.0366 23.02C47.6819 23.02 48.2833 22.8587 48.8406 22.536C49.3979 22.2133 49.8453 21.744 50.1826 21.128C50.5346 20.4973 50.7106 19.764 50.7106 18.928ZM59.0428 14.66C59.4681 14.1027 60.0474 13.6333 60.7808 13.252C61.5141 12.8707 62.3428 12.68 63.2668 12.68C64.3228 12.68 65.2834 12.944 66.1488 13.472C67.0288 13.9853 67.7181 14.7113 68.2168 15.65C68.7154 16.5887 68.9648 17.6667 68.9648 18.884C68.9648 20.1013 68.7154 21.194 68.2168 22.162C67.7181 23.1153 67.0288 23.8633 66.1488 24.406C65.2834 24.934 64.3228 25.198 63.2668 25.198C62.3428 25.198 61.5214 25.0147 60.8028 24.648C60.0841 24.2667 59.4974 23.7973 59.0428 23.24V30.764H56.5348V12.878H59.0428V14.66ZM66.4128 18.884C66.4128 18.048 66.2368 17.3293 65.8848 16.728C65.5474 16.112 65.0928 15.65 64.5208 15.342C63.9634 15.0193 63.3621 14.858 62.7168 14.858C62.0861 14.858 61.4848 15.0193 60.9128 15.342C60.3554 15.6647 59.9008 16.134 59.5488 16.75C59.2114 17.366 59.0428 18.092 59.0428 18.928C59.0428 19.764 59.2114 20.4973 59.5488 21.128C59.9008 21.744 60.3554 22.2133 60.9128 22.536C61.4848 22.8587 62.0861 23.02 62.7168 23.02C63.3621 23.02 63.9634 22.8587 64.5208 22.536C65.0928 22.1987 65.5474 21.7147 65.8848 21.084C66.2368 20.4533 66.4128 19.72 66.4128 18.884Z" fill="#0CA678"/>
<path d="M74.3709 14.924V21.634C74.3709 22.0887 74.4736 22.4187 74.6789 22.624C74.8989 22.8147 75.2656 22.91 75.7789 22.91H77.3189V25H75.3389C74.2096 25 73.3443 24.736 72.7429 24.208C72.1416 23.68 71.8409 22.822 71.8409 21.634V14.924H70.4109V12.878H71.8409V9.864H74.3709V12.878H77.3189V14.924H74.3709ZM78.7945 18.884C78.7945 17.6667 79.0438 16.5887 79.5425 15.65C80.0558 14.7113 80.7451 13.9853 81.6105 13.472C82.4905 12.944 83.4585 12.68 84.5145 12.68C85.4678 12.68 86.2965 12.8707 87.0005 13.252C87.7191 13.6187 88.2911 14.0807 88.7165 14.638V12.878H91.2465V25H88.7165V23.196C88.2911 23.768 87.7118 24.2447 86.9785 24.626C86.2451 25.0073 85.4091 25.198 84.4705 25.198C83.4291 25.198 82.4758 24.934 81.6105 24.406C80.7451 23.8633 80.0558 23.1153 79.5425 22.162C79.0438 21.194 78.7945 20.1013 78.7945 18.884ZM88.7165 18.928C88.7165 18.092 88.5405 17.366 88.1885 16.75C87.8511 16.134 87.4038 15.6647 86.8465 15.342C86.2891 15.0193 85.6878 14.858 85.0425 14.858C84.3971 14.858 83.7958 15.0193 83.2385 15.342C82.6811 15.65 82.2265 16.112 81.8745 16.728C81.5371 17.3293 81.3685 18.048 81.3685 18.884C81.3685 19.72 81.5371 20.4533 81.8745 21.084C82.2265 21.7147 82.6811 22.1987 83.2385 22.536C83.8105 22.8587 84.4118 23.02 85.0425 23.02C85.6878 23.02 86.2891 22.8587 86.8465 22.536C87.4038 22.2133 87.8511 21.744 88.1885 21.128C88.5405 20.4973 88.7165 19.764 88.7165 18.928ZM97.0486 14.66C97.474 14.1027 98.0533 13.6333 98.7866 13.252C99.52 12.8707 100.349 12.68 101.273 12.68C102.329 12.68 103.289 12.944 104.155 13.472C105.035 13.9853 105.724 14.7113 106.223 15.65C106.721 16.5887 106.971 17.6667 106.971 18.884C106.971 20.1013 106.721 21.194 106.223 22.162C105.724 23.1153 105.035 23.8633 104.155 24.406C103.289 24.934 102.329 25.198 101.273 25.198C100.349 25.198 99.5273 25.0147 98.8086 24.648C98.09 24.2667 97.5033 23.7973 97.0486 23.24V30.764H94.5406V12.878H97.0486V14.66ZM104.419 18.884C104.419 18.048 104.243 17.3293 103.891 16.728C103.553 16.112 103.099 15.65 102.527 15.342C101.969 15.0193 101.368 14.858 100.723 14.858C100.092 14.858 99.4906 15.0193 98.9186 15.342C98.3613 15.6647 97.9066 16.134 97.5546 16.75C97.2173 17.366 97.0486 18.092 97.0486 18.928C97.0486 19.764 97.2173 20.4973 97.5546 21.128C97.9066 21.744 98.3613 22.2133 98.9186 22.536C99.4906 22.8587 100.092 23.02 100.723 23.02C101.368 23.02 101.969 22.8587 102.527 22.536C103.099 22.1987 103.553 21.7147 103.891 21.084C104.243 20.4533 104.419 19.72 104.419 18.884Z" fill="#495057"/>
</svg>
